<?xml version="1.0" encoding="iso-8859-1"?>
<!-- Generator: Adobe Illustrator 16.0.0, SVG Export Plug-In . SVG Version: 6.00 Build 0)  -->
<!DOCTYPE svg PUBLIC "-//W3C//DTD SVG 1.1//EN" "http://www.w3.org/Graphics/SVG/1.1/DTD/svg11.dtd">
<svg xmlns="http://www.w3.org/2000/svg" xmlns:xlink="http://www.w3.org/1999/xlink" version="1.1" id="Capa_1" x="0px" y="0px" width="512px" height="512px" viewBox="0 0 311.314 311.314" style="enable-background:new 0 0 311.314 311.314;" xml:space="preserve">
<g>
	<g>
		<path d="M52.836,87.493c2.084,0.452,4.019,0.419,9.962-4.143c2.638-2.029,6.54-5.441,10.142-10.208l1.578-2.091    c13.492-17.946,45.078-59.96,90.702-57.674c37.624,2.743,64.292,31.155,77.122,82.167c0.438,1.735,0.701,2.796,0.996,3.618    c1.957,8.339,5.249,18.732,9.985,22.156c1.171,0.849,2.536,1.254,3.885,1.254c2.057,0,4.093-0.953,5.39-2.753    c2.074-2.872,1.52-6.844-1.198-9.045c-1.311-1.697-3.774-8.796-5.242-15.146c-0.086-0.378-0.209-0.743-0.359-1.097    c-0.123-0.435-0.359-1.381-0.575-2.228c-2.032-8.088-7.437-29.565-20.533-49.765C217.77,16.454,194.695,2.181,166.102,0.12    c-0.044-0.007-0.092-0.007-0.14-0.007C113.261-2.578,78.667,43.426,63.898,63.067l-1.552,2.063    c-4.043,5.346-8.821,8.674-10.467,9.637c-0.555,0.222-1.094,0.52-1.595,0.898c-2.067,1.566-3.077,4.237-2.521,6.768    C48.322,84.959,50.302,86.939,52.836,87.493z" fill="#ff5722"/>
		<path d="M219.208,112.966c5.01-12.525,5.137-25.462,0.328-35.494c-4.277-8.954-12.265-15.438-23.085-18.752    c-15.887-4.861-35.143,3.959-52.784,24.172c-0.224,0.248-25.336,26.661-51.705,42.808c-0.193,0.116-19.498,11.693-39.658,17.189    c-3.541,0.96-5.628,4.615-4.665,8.149c0.96,3.54,4.611,5.632,8.153,4.663c21.928-5.967,42.185-18.115,43.071-18.647    c28.606-17.518,54.553-45.121,54.77-45.381c10.713-12.268,26.561-24.032,38.922-20.247c7.278,2.228,12.326,6.192,14.999,11.784    c3.203,6.69,2.953,15.742-0.685,24.828c-6.766,16.913-27.843,37.329-59.345,57.503c-15.793,10.115-55.564,34.957-83.658,46.962    c-3.375,1.444-4.938,5.339-3.498,8.717c1.08,2.525,3.532,4.034,6.112,4.034c0.873,0,1.759-0.171,2.611-0.534    c29.001-12.408,69.524-37.694,85.599-47.988C178.614,161.41,209.222,137.912,219.208,112.966z" fill="#ff5722"/>
		<path d="M112.222,63.372c-3.013,3.323-5.718,6.891-8.634,10.292c-3.816,4.461-7.986,8.629-12.342,12.56    c-4.478,4.045-8.102,6.935-13.382,9.974c-5.604,3.21-11.315,6.461-17.119,9.29c-1.997,0.976-3.715,1.605-5.96,2.281    c-3.463,1.042-5.614,4.617-4.637,8.172c0.939,3.427,4.704,5.684,8.172,4.644c6.791-2.047,12.948-5.544,19.077-9.028    c5.183-2.943,10.325-5.595,15.083-9.216c9.279-7.053,17.261-15.289,24.604-24.306c2.976-3.651,6.153-7.126,9.476-10.466    c1.812-1.823,3.686-3.578,5.602-5.299c0.996-0.893,2.009-1.763,3.035-2.628c0.519-0.435,1.044-0.866,1.574-1.295    c0.135-0.113,1.167-0.925,1.429-1.136c4.627-3.544,9.557-6.694,14.743-9.356c4.899-2.521,9.813-4.279,15.775-5.523    c1.975-0.411,2.405-0.455,3.884-0.605c3.6-0.371,6.646-2.741,6.646-6.641c0-3.344-3.035-7.019-6.646-6.645    C148.586,30.93,128.048,45.943,112.222,63.372z" fill="#ff5722"/>
		<path d="M60.527,190.57c14.432-4.952,88.526-32.62,130.02-90.781c2.133-2.986,1.438-7.13-1.546-9.266    c-2.991-2.13-7.139-1.436-9.271,1.55c-39.136,54.862-109.758,81.205-123.52,85.937c-0.294,0.096-0.476,0.161-0.539,0.182    c-3.431,1.308-5.159,5.137-3.858,8.565c1.006,2.659,3.532,4.288,6.216,4.288c0.75,0,1.518-0.127,2.264-0.394L60.527,190.57z" fill="#ff5722"/>
		<path d="M241.284,230.113c-9.205-3.069-20.475-11.091-31.367-18.849c-15.78-11.246-29.399-20.947-40.501-19.038    c-8.344,1.444-22.917,10.76-45.922,25.916c-16.582,10.934-35.383,23.325-43.559,25.526c-3.542,0.961-5.642,4.603-4.688,8.141    c0.799,2.971,3.48,4.922,6.413,4.922c0.572,0,1.152-0.076,1.727-0.229c10.251-2.766,28.308-14.668,47.424-27.265    c15.439-10.178,34.657-22.846,40.864-23.917c5.641-0.966,19.445,8.856,30.536,16.758c11.69,8.326,23.777,16.937,34.872,20.64    c3.483,1.156,7.244-0.726,8.404-4.203C246.646,235.038,244.764,231.273,241.284,230.113z" fill="#ff5722"/>
		<path d="M224.652,262.655c-5.355-1.934-14.058-7.313-22.477-12.512c-17.781-10.988-29.081-17.655-37.191-16.259    c-8.214,1.424-25.467,13.145-54.418,34.29c-3.547,2.587-6.606,4.818-8.73,6.32c-2.993,2.122-3.708,6.263-1.595,9.261    c1.3,1.831,3.35,2.81,5.433,2.81c1.325,0,2.663-0.396,3.826-1.215c2.207-1.561,5.306-3.829,8.897-6.44    c11.522-8.415,42.137-30.766,48.78-31.912c4.144-0.284,19.089,8.936,28.017,14.452c9.411,5.811,18.295,11.3,24.948,13.709    c3.445,1.246,7.258-0.541,8.504-3.993C229.891,267.706,228.109,263.904,224.652,262.655z" fill="#ff5722"/>
		<path d="M202.216,295.679c-3.73-2.434-7.159-4.887-10.482-7.248c-10.889-7.785-20.31-14.507-30.628-12.707    c-11.625,2.006-30.132,20.619-33.727,24.321c-2.551,2.639-2.481,6.845,0.154,9.401c1.291,1.238,2.955,1.868,4.615,1.868    c1.738,0,3.473-0.674,4.774-2.022c8.897-9.188,21.537-19.63,26.439-20.479c4.85-0.831,12.184,4.381,20.66,10.431    c3.265,2.334,6.968,4.973,10.938,7.566c3.069,2.002,7.189,1.137,9.195-1.937C206.152,301.798,205.287,297.688,202.216,295.679z" fill="#ff5722"/>
		<path d="M260.67,158.56c-5.537-2.338-11.327-4.798-15.988-8.677c-5.13-4.268-7.515-9.871-8.586-16.343    c-1.386-8.439-14.192-4.848-12.81,3.528c2.841,17.23,15.523,26.562,30.677,32.959c3.336,1.417,7.08,1.047,9.085-2.379    C264.706,164.829,264.003,159.973,260.67,158.56z" fill="#ff5722"/>
		<path d="M247.776,193.223c-4.986-1.54-8.774-3.483-14.052-6.604c-9.667-5.712-18.486-13.986-22.774-24.564    c-1.358-3.351-4.37-5.685-8.172-4.637c-3.187,0.876-5.999,4.812-4.641,8.175c7.919,19.517,26.091,34.273,46.11,40.443    C252.458,208.561,255.941,195.738,247.776,193.223z" fill="#ff5722"/>
	</g>
</g>
<g>
</g>
<g>
</g>
<g>
</g>
<g>
</g>
<g>
</g>
<g>
</g>
<g>
</g>
<g>
</g>
<g>
</g>
<g>
</g>
<g>
</g>
<g>
</g>
<g>
</g>
<g>
</g>
<g>
</g>
</svg>
