<?xml version="1.0" encoding="iso-8859-1"?>
<!-- Generator: Adobe Illustrator 16.0.0, SVG Export Plug-In . SVG Version: 6.00 Build 0)  -->
<!DOCTYPE svg PUBLIC "-//W3C//DTD SVG 1.1//EN" "http://www.w3.org/Graphics/SVG/1.1/DTD/svg11.dtd">
<svg xmlns="http://www.w3.org/2000/svg" xmlns:xlink="http://www.w3.org/1999/xlink" version="1.1" id="Capa_1" x="0px" y="0px" width="32px" height="32px" viewBox="0 0 352.968 352.969" style="enable-background:new 0 0 352.968 352.969;" xml:space="preserve">
<g>
	<g>
		<path d="M68.922,87.914c-2.11,1.602-3.14,4.324-2.573,6.906c0.575,2.584,2.594,4.601,5.183,5.169    c2.127,0.467,4.1,0.435,10.164-4.226c2.698-2.067,6.678-5.554,10.354-10.417l1.608-2.135    c13.772-18.315,46.016-61.202,92.583-58.875c38.403,2.803,65.634,31.806,78.724,83.879c0.444,1.769,0.719,2.855,1.02,3.689    c1.999,8.516,5.359,19.126,10.191,22.617c1.204,0.869,2.587,1.283,3.963,1.283c2.111,0,4.182-0.979,5.503-2.815    c2.121-2.929,1.554-6.984-1.219-9.229c-1.342-1.731-3.86-8.981-5.352-15.461c-0.09-0.385-0.213-0.76-0.37-1.121    c-0.123-0.441-0.366-1.406-0.582-2.271c-2.08-8.254-7.59-30.18-20.96-50.799c-17.279-26.626-40.823-41.192-70.015-43.299    c-0.048-0.003-0.092-0.003-0.144-0.008C133.204,8.051,97.895,55.008,82.823,75.06l-1.588,2.106    c-4.127,5.455-8.999,8.852-10.684,9.835C69.983,87.222,69.438,87.528,68.922,87.914z" fill="#FFFFFF"/>
		<path d="M241.351,125.994c5.113-12.784,5.236-25.992,0.336-36.234c-4.374-9.136-12.525-15.759-23.565-19.14    c-16.214-4.962-35.871,4.043-53.88,24.674c-0.231,0.251-25.865,27.214-52.778,43.694c-0.199,0.12-19.91,11.943-40.484,17.547    c-3.614,0.984-5.744,4.709-4.755,8.323c0.977,3.612,4.709,5.748,8.322,4.758c22.381-6.095,43.056-18.495,43.961-19.042    c29.198-17.879,55.687-46.061,55.911-46.319c10.93-12.525,27.109-24.534,39.727-20.668c7.423,2.274,12.58,6.321,15.308,12.029    c3.274,6.831,3.019,16.063-0.695,25.339c-6.909,17.263-28.417,38.109-60.573,58.697c-16.127,10.331-56.721,35.68-85.388,47.938    c-3.45,1.472-5.042,5.455-3.575,8.897c1.101,2.573,3.605,4.113,6.233,4.113c0.89,0,1.795-0.171,2.664-0.544    c29.607-12.658,70.969-38.475,87.382-48.981C199.916,175.44,231.161,151.453,241.351,125.994z" fill="#FFFFFF"/>
		<path d="M132.15,75.371c-3.082,3.393-5.838,7.029-8.817,10.506c-3.893,4.555-8.152,8.81-12.602,12.821    c-4.565,4.129-8.267,7.084-13.66,10.178c-5.715,3.283-11.546,6.602-17.472,9.486c-2.04,0.996-3.785,1.639-6.076,2.33    c-3.54,1.061-5.737,4.712-4.738,8.34c0.956,3.498,4.796,5.801,8.336,4.738c6.935-2.086,13.222-5.652,19.481-9.209    c5.284-3.006,10.533-5.713,15.395-9.409c9.471-7.202,17.623-15.612,25.119-24.811c3.03-3.725,6.276-7.275,9.664-10.68    c1.853-1.862,3.771-3.655,5.722-5.407c1.02-0.912,2.055-1.802,3.096-2.681c0.532-0.445,1.067-0.883,1.608-1.321    c0.144-0.117,1.198-0.946,1.465-1.164c4.724-3.617,9.751-6.83,15.043-9.549c4.997-2.568,10.011-4.37,16.1-5.634    c2.019-0.421,2.457-0.466,3.97-0.621c3.675-0.382,6.782-2.796,6.782-6.779c0-3.411-3.101-7.163-6.782-6.781    C169.267,42.251,148.304,57.576,132.15,75.371z" fill="#FFFFFF"/>
		<path d="M79.382,205.204c14.729-5.054,90.365-33.297,132.71-92.663c2.176-3.049,1.471-7.282-1.582-9.454    c-3.045-2.176-7.282-1.47-9.448,1.579c-39.95,55.995-112.043,82.89-126.084,87.715c-0.303,0.1-0.481,0.164-0.548,0.191    c-3.504,1.328-5.263,5.243-3.942,8.747c1.027,2.71,3.605,4.381,6.347,4.381c0.768,0,1.552-0.138,2.313-0.411L79.382,205.204z" fill="#FFFFFF"/>
		<path d="M263.889,245.569c-9.396-3.132-20.902-11.321-32.018-19.24c-16.111-11.471-30.012-21.381-41.346-19.427    c-8.515,1.472-23.389,10.975-46.872,26.456c-16.933,11.163-36.119,23.809-44.466,26.057c-3.612,0.972-5.758,4.695-4.783,8.309    c0.813,3.029,3.552,5.024,6.542,5.024c0.582,0,1.177-0.075,1.766-0.236c10.458-2.816,28.89-14.965,48.405-27.825    c15.762-10.391,35.38-23.322,41.714-24.414c5.76-0.985,19.849,9.041,31.173,17.11c11.933,8.494,24.276,17.286,35.594,21.061    c3.556,1.188,7.392-0.739,8.576-4.285C269.358,250.593,267.435,246.753,263.889,245.569z" fill="#FFFFFF"/>
		<path d="M246.909,278.784c-5.462-1.978-14.346-7.464-22.942-12.771c-18.15-11.214-29.684-18.021-37.965-16.59    c-8.388,1.447-25.99,13.418-55.552,34.994c-3.619,2.636-6.742,4.922-8.904,6.455c-3.06,2.155-3.792,6.393-1.629,9.444    c1.321,1.876,3.417,2.875,5.544,2.875c1.348,0,2.715-0.404,3.908-1.246c2.252-1.591,5.414-3.901,9.076-6.577    c11.764-8.586,43.013-31.401,49.792-32.572c4.229-0.287,19.489,9.124,28.603,14.75c9.6,5.934,18.668,11.539,25.461,13.989    c3.521,1.276,7.405-0.547,8.682-4.072C252.254,283.945,250.434,280.058,246.909,278.784z" fill="#FFFFFF"/>
		<path d="M224.008,312.496c-3.806-2.487-7.311-4.986-10.698-7.402c-11.122-7.939-20.731-14.801-31.265-12.97    c-11.87,2.047-30.759,21.046-34.427,24.831c-2.601,2.69-2.534,6.981,0.158,9.586c1.314,1.276,3.017,1.913,4.716,1.913    c1.774,0,3.54-0.691,4.875-2.067c9.076-9.38,21.976-20.037,26.986-20.902c4.948-0.849,12.429,4.476,21.091,10.649    c3.329,2.382,7.107,5.078,11.156,7.721c3.138,2.046,7.347,1.163,9.387-1.972C228.026,318.745,227.142,314.543,224.008,312.496z" fill="#FFFFFF"/>
		<path d="M283.676,172.531c-5.653-2.387-11.56-4.895-16.316-8.856c-5.243-4.354-7.68-10.078-8.768-16.683    c-1.417-8.614-14.482-4.949-13.072,3.605c2.895,17.592,15.844,27.11,31.312,33.647c3.404,1.437,7.234,1.061,9.273-2.434    C287.797,178.933,287.085,173.972,283.676,172.531z" fill="#FFFFFF"/>
		<path d="M270.515,207.911c-5.093-1.567-8.952-3.559-14.346-6.741c-9.87-5.831-18.87-14.284-23.243-25.071    c-1.39-3.42-4.463-5.804-8.344-4.735c-3.251,0.894-6.125,4.909-4.736,8.342c8.083,19.924,26.632,34.984,47.062,41.278    C275.292,223.567,278.844,210.479,270.515,207.911z" fill="#FFFFFF"/>
		<polygon points="10.617,10.679 76.504,10.679 76.504,0.166 0.104,0.166 0.104,76.565 10.617,76.565   " fill="#FFFFFF"/>
		<polygon points="276.565,0.166 276.565,10.679 342.456,10.679 342.456,76.565 352.968,76.565 352.968,0.166   " fill="#FFFFFF"/>
		<polygon points="10.513,276.402 0,276.402 0,352.803 76.396,352.803 76.396,342.29 10.513,342.29   " fill="#FFFFFF"/>
		<polygon points="342.346,342.29 276.456,342.29 276.456,352.803 352.859,352.803 352.859,276.402 342.346,276.402   " fill="#FFFFFF"/>
	</g>
</g>
<g>
</g>
<g>
</g>
<g>
</g>
<g>
</g>
<g>
</g>
<g>
</g>
<g>
</g>
<g>
</g>
<g>
</g>
<g>
</g>
<g>
</g>
<g>
</g>
<g>
</g>
<g>
</g>
<g>
</g>
</svg>
